<svg xmlns="http://www.w3.org/2000/svg" viewBox="0 0 82.85 84.97"><path d="M81.14 43.71h-6.47v-4.59h6.47a1.71 1.71 0 1 0 0-3.41h-6.47v-3.53a.68.68 0 0 0-.67-.68h-.24a.68.68 0 0 0-.68.68v1.19H67a3.06 3.06 0 0 0-3.05 3.06v3.32h-3.87A4.26 4.26 0 0 0 56.92 41a4.19 4.19 0 0 0-1.26 3.12v28.19a2.78 2.78 0 0 1-.51 1.91 2.47 2.47 0 0 1-1.87.55h-5.36a2.85 2.85 0 0 1-1.92-.51 2.56 2.56 0 0 1-.54-1.88V48a4.31 4.31 0 0 0-1.24-3.17 4.26 4.26 0 0 0-3.13-1.25h-.16V6.85A6.87 6.87 0 0 0 34.06 0H10.48a6.87 6.87 0 0 0-6.85 6.85v71.82h-1.5C.39 78.67 0 80.09 0 81.82S.39 85 2.13 85h40.29c1.73 0 2.12-1.42 2.12-3.15s-.39-3.15-2.12-3.15h-1.51V46.62a1.78 1.78 0 0 1 1.09.48 2.78 2.78 0 0 1 .48 1.9v24.36a4.19 4.19 0 0 0 1.26 3.12 4.26 4.26 0 0 0 3.16 1.25h7.35a4.22 4.22 0 0 0 3.12-1.25 4.28 4.28 0 0 0 1.25-3.17V45.1a2.56 2.56 0 0 1 .54-1.88 2.85 2.85 0 0 1 1.92-.51h2.79v3.69A3.06 3.06 0 0 0 67 49.46h6.1v1.19a.68.68 0 0 0 .68.68H74a.68.68 0 0 0 .68-.68v-3.53h6.47a1.71 1.71 0 1 0 0-3.41zm-47.48-7.45L20.29 56.08a1.75 1.75 0 0 1-1.48.75A1.56 1.56 0 0 1 17.15 55l3.28-11.85H12a1.59 1.59 0 0 1-1.7-1.7l2.28-15.26a1.66 1.66 0 0 1 1.7-1.3H24a1.56 1.56 0 0 1 1.65 1.89L24 34h8.22a1.51 1.51 0 0 1 1.44 2.26z" fill="#060012" data-name="Layer 2"/></svg>