<svg xmlns="http://www.w3.org/2000/svg" viewBox="0 0 437.04 97.19"><defs><linearGradient id="a" y1="48.59" x2="71.9" y2="48.59" gradientUnits="userSpaceOnUse"><stop offset="0" stop-color="#9571ff"/><stop offset=".42" stop-color="#763dff"/><stop offset=".57" stop-color="#7338ff"/><stop offset=".73" stop-color="#6b2bff"/><stop offset=".9" stop-color="#5e15ff"/><stop offset="1" stop-color="#5405ff"/></linearGradient></defs><g data-name="Layer 2"><path d="M75.26 77.94a7.89 7.89 0 0 1-3.64-7A5.19 5.19 0 0 1 73.23 67a5.78 5.78 0 0 1 4.16-1.54 3.66 3.66 0 0 1 2.29.76 1.87 1.87 0 0 1 .79 1.27c0 .05-.22.2-.66.46a3.79 3.79 0 0 0-1.18 1.18 3.88 3.88 0 0 0-.52 2.16A6 6 0 0 0 80 76q1.88 1.67 5.8 1.67a10.09 10.09 0 0 0 4.71-1 7.68 7.68 0 0 0 3.11-2.78 6.72 6.72 0 0 0 1.09-3.64 6.35 6.35 0 0 0-1.35-4.06A11.5 11.5 0 0 0 90 63.34a55.93 55.93 0 0 0-5.37-2.66 63.88 63.88 0 0 1-6.36-3.2 13.44 13.44 0 0 1-4.12-3.84 9.89 9.89 0 0 1-1.7-5.92q0-5.7 3.89-8.51t10.25-2.82a17.3 17.3 0 0 1 8.68 2.1A6.68 6.68 0 0 1 99 44.64a5.19 5.19 0 0 1-1.61 3.9 5.78 5.78 0 0 1-4.16 1.54 3.68 3.68 0 0 1-2.29-.76 1.85 1.85 0 0 1-.78-1.27 3 3 0 0 1 .88-.46 4.55 4.55 0 0 0 1.57-1.18 3.18 3.18 0 0 0 .69-2.16 4.45 4.45 0 0 0-1.87-3.8 7.74 7.74 0 0 0-4.74-1.38c-2.67 0-4.69.63-6.06 1.87a6.35 6.35 0 0 0-.82 8.45 13.42 13.42 0 0 0 4 3c1.49.79 3.1 1.57 4.85 2.36a55 55 0 0 1 6.65 3.47 13.75 13.75 0 0 1 4.12 4.13 11.31 11.31 0 0 1 1.67 6.35 9.4 9.4 0 0 1-2.1 5.97 13.8 13.8 0 0 1-5.57 4.15 19.15 19.15 0 0 1-7.69 1.51q-6.84 0-10.48-2.39zm29.24.88a1.5 1.5 0 0 1-.29-.91q.06-.85.39-1a2.93 2.93 0 0 1 1.18-.16 3.86 3.86 0 0 0 2.42-.59 2.06 2.06 0 0 0 .82-1.38 21.1 21.1 0 0 0 .1-2.49v-15a21.1 21.1 0 0 0-.1-2.49 2.07 2.07 0 0 0-.82-1.37 3.8 3.8 0 0 0-2.42-.59 2.44 2.44 0 0 1-1.18-.23q-.39-.24-.39-1.08a1.29 1.29 0 0 1 .26-.76 1.09 1.09 0 0 1 .79-.42 34.13 34.13 0 0 0 7.07-1.7 7.28 7.28 0 0 1 1.51-.4h.16c.7 0 1 .42 1 1.25v22.77a16.4 16.4 0 0 0 .13 2.49 2.23 2.23 0 0 0 .85 1.38 3.9 3.9 0 0 0 2.43.59h.39a1.28 1.28 0 0 1 .78.19 1.39 1.39 0 0 1 .33 1 1.62 1.62 0 0 1-.26.91.88.88 0 0 1-.79.4q-3.8-.19-6.87-.2t-6.81.2a.9.9 0 0 1-.68-.41zm4.16-39a3.73 3.73 0 0 1-1.24-2.82 3.41 3.41 0 0 1 1.5-2.69 5.42 5.42 0 0 1 3.41-1.17 3.46 3.46 0 0 1 2.67 1.12 4.17 4.17 0 0 1 1 2.92 3.47 3.47 0 0 1-1.24 2.68 4.47 4.47 0 0 1-3.02 1.14 4.4 4.4 0 0 1-3.08-1.17zm20.43 37.89a13.56 13.56 0 0 1-5.2-5.7 17.85 17.85 0 0 1-1.77-8 16.31 16.31 0 0 1 1.8-7.43 14.87 14.87 0 0 1 5.14-5.79 13.46 13.46 0 0 1 7.66-2.23q5.84 0 9 3a12.08 12.08 0 0 1 3.6 8 3.32 3.32 0 0 1-1.17 3 6.21 6.21 0 0 1-3.41.78H128.8q0 6.09 2.52 9.66t7.82 3.57a8.89 8.89 0 0 0 4.78-1.21 12.16 12.16 0 0 0 3.74-4.09.93.93 0 0 1 .65-.33 1.25 1.25 0 0 1 .79.26 1.3 1.3 0 0 1 .65 1.18 1.05 1.05 0 0 1-.13.59 14.66 14.66 0 0 1-5.14 5.03 13.79 13.79 0 0 1-7 1.81 15.73 15.73 0 0 1-8.39-2.1zm10.38-16.89q3.34 0 3.54-2.76a8 8 0 0 0-1.64-5.1 5.55 5.55 0 0 0-4.65-2.1 6.82 6.82 0 0 0-5.5 2.65 12.4 12.4 0 0 0-2.42 7.31zm13.41 18a1.44 1.44 0 0 1-.3-.91c0-.57.18-.91.39-1a3 3 0 0 1 1.18-.16 3.9 3.9 0 0 0 2.43-.59 2 2 0 0 0 .81-1.38 21.1 21.1 0 0 0 .1-2.49v-15a21.1 21.1 0 0 0-.1-2.49 2.05 2.05 0 0 0-.81-1.37 3.83 3.83 0 0 0-2.43-.59 2.46 2.46 0 0 1-1.15-.24q-.39-.24-.39-1.08a1.29 1.29 0 0 1 .26-.76 1.09 1.09 0 0 1 .79-.42 36 36 0 0 0 7-1.7c.74-.22 1.24-.35 1.5-.4h.2c.7 0 1 .42 1 1.25v4.06h.19a22.37 22.37 0 0 1 4.65-3.64 8.83 8.83 0 0 1 4.26-1.34 4.16 4.16 0 0 1 3.44 1.6 5.79 5.79 0 0 1 1.27 3.7 5.22 5.22 0 0 1-1.11 3.28 3.67 3.67 0 0 1-3.06 1.44 3.19 3.19 0 0 1-1.6-.39c-.46-.27-.71-.48-.75-.66a7.14 7.14 0 0 1 .65-.82 2.4 2.4 0 0 0 .59-1.6 2.82 2.82 0 0 0-.62-1.9 2.1 2.1 0 0 0-1.67-.72 5.67 5.67 0 0 0-2.82 1.08 19.85 19.85 0 0 0-3.34 2.72v16a17.86 17.86 0 0 0 .13 2.49 2.23 2.23 0 0 0 .85 1.38 3.9 3.9 0 0 0 2.43.59h.39a1.34 1.34 0 0 1 .79.19 1.45 1.45 0 0 1 .32 1 1.55 1.55 0 0 1-.26.91.87.87 0 0 1-.78.4q-3.81-.19-6.88-.2c-2 0-4.24.07-6.81.2a.87.87 0 0 1-.74-.44zm27.83 0a1.44 1.44 0 0 1-.3-.91c0-.57.18-.91.39-1a3 3 0 0 1 1.18-.16 3.9 3.9 0 0 0 2.43-.59 2 2 0 0 0 .81-1.38 21.1 21.1 0 0 0 .1-2.49v-15a21.1 21.1 0 0 0-.1-2.49 2.05 2.05 0 0 0-.81-1.37 3.83 3.83 0 0 0-2.43-.59 2.46 2.46 0 0 1-1.18-.23q-.39-.24-.39-1.08a1.29 1.29 0 0 1 .26-.76 1.09 1.09 0 0 1 .79-.42 36 36 0 0 0 7-1.7c.74-.22 1.24-.35 1.5-.4h.2c.7 0 1.05.42 1.05 1.25v4.06h.19a22.37 22.37 0 0 1 4.65-3.64 8.83 8.83 0 0 1 4.26-1.34 4.16 4.16 0 0 1 3.44 1.6 5.79 5.79 0 0 1 1.27 3.7 5.22 5.22 0 0 1-1.11 3.28 3.67 3.67 0 0 1-3.08 1.44 3.19 3.19 0 0 1-1.6-.39c-.46-.27-.71-.48-.75-.66a7.14 7.14 0 0 1 .65-.82 2.4 2.4 0 0 0 .59-1.6 2.82 2.82 0 0 0-.62-1.9 2.1 2.1 0 0 0-1.67-.72 5.67 5.67 0 0 0-2.82 1.08 19.85 19.85 0 0 0-3.34 2.72v16a17.86 17.86 0 0 0 .13 2.49 2.23 2.23 0 0 0 .85 1.38 3.9 3.9 0 0 0 2.43.59h.39a1.34 1.34 0 0 1 .79.19 1.45 1.45 0 0 1 .32 1 1.55 1.55 0 0 1-.26.91.87.87 0 0 1-.78.4q-3.81-.19-6.88-.2c-2 0-4.24.07-6.81.2a.87.87 0 0 1-.74-.45zm28.72-1.24a8 8 0 0 1 .32-11.76 14.84 14.84 0 0 1 6.55-2.68 96.64 96.64 0 0 1 9.83-1V57a6.77 6.77 0 0 0-1.61-4.88q-1.61-1.66-5.14-1.67a5.4 5.4 0 0 0-3.54 1.24 4.13 4.13 0 0 0-1.5 3.34 2.91 2.91 0 0 0 .49 1.74 5.82 5.82 0 0 0 1 1.14c.37.31.55.48.55.53 0 .26-.27.6-.81 1a3.2 3.2 0 0 1-2 .62 3.76 3.76 0 0 1-3.11-1.44 5.26 5.26 0 0 1-1.15-3.4 5.37 5.37 0 0 1 3-5 15.36 15.36 0 0 1 7.36-1.64 16.84 16.84 0 0 1 8.75 2c2.24 1.35 3.37 3.86 3.37 7.53v15.28a5.34 5.34 0 0 0 .85 2.62 2.78 2.78 0 0 0 2.55 1.24 1.19 1.19 0 0 1 .76.2 1.14 1.14 0 0 1 .23.85c0 .52-.41.9-1.22 1.15a8.66 8.66 0 0 1-2.39.36 7 7 0 0 1-4.38-1.45 5.31 5.31 0 0 1-2.16-3.86 9.2 9.2 0 0 1-4.23 3.93 13.86 13.86 0 0 1-6.12 1.38 9 9 0 0 1-6.25-2.23zM222 75.16a8.23 8.23 0 0 0 3-3 8.48 8.48 0 0 0 1.12-4.29v-3.78q-6.88.52-9.7 2.23a5.94 5.94 0 0 0-2.81 5.5q0 4.46 4.25 4.45a8 8 0 0 0 4.14-1.11zm43.45 2.52a19.24 19.24 0 0 1-7.34-7.57 23.28 23.28 0 0 1-2.71-11.46A24.88 24.88 0 0 1 258 47a18.84 18.84 0 0 1 7.46-7.83 22.41 22.41 0 0 1 11.33-2.78 21.56 21.56 0 0 1 10 2.26 7.39 7.39 0 0 1 4.39 7 7 7 0 0 1-1.77 5 6.24 6.24 0 0 1-4.91 2.07 4.32 4.32 0 0 1-2-.43 3 3 0 0 1-1.21-1 1.38 1.38 0 0 1-.33-.91c0-.09.3-.33.92-.72a5.92 5.92 0 0 0 1.67-1.66 4.4 4.4 0 0 0 .72-2.55 5.9 5.9 0 0 0-2-4.69 8.22 8.22 0 0 0-5.53-1.76 11.74 11.74 0 0 0-7.1 2.26 14.53 14.53 0 0 0-4.85 6.61 28.2 28.2 0 0 0-1.73 10.38 23.72 23.72 0 0 0 1.86 9.53 16.38 16.38 0 0 0 5.28 6.81 12.72 12.72 0 0 0 7.8 2.53 11.79 11.79 0 0 0 6-1.47 13.74 13.74 0 0 0 4.56-4.75 1 1 0 0 1 .91-.59 2.37 2.37 0 0 1 1.18.39q1.05.72 1.05 1.44a.91.91 0 0 1-.26.66 25.71 25.71 0 0 1-4.68 4.75 12.91 12.91 0 0 1-4.75 2.19 29.35 29.35 0 0 1-6.42.59 20.06 20.06 0 0 1-10.14-2.65zm29.67 1.14a1.5 1.5 0 0 1-.29-.91q.06-.85.39-1a2.93 2.93 0 0 1 1.18-.16 3.86 3.86 0 0 0 2.42-.59 2.06 2.06 0 0 0 .82-1.38 21.1 21.1 0 0 0 .1-2.49v-15a21.1 21.1 0 0 0-.1-2.49 2.07 2.07 0 0 0-.82-1.37 3.8 3.8 0 0 0-2.42-.59 2.44 2.44 0 0 1-1.18-.23q-.39-.24-.39-1.08a1.29 1.29 0 0 1 .26-.76 1.09 1.09 0 0 1 .79-.42 35.88 35.88 0 0 0 7-1.7c.75-.22 1.25-.35 1.51-.4h.2c.69 0 1 .42 1 1.25v4.06h.2a22.37 22.37 0 0 1 4.65-3.64 8.83 8.83 0 0 1 4.26-1.34 4.14 4.14 0 0 1 3.43 1.6 5.74 5.74 0 0 1 1.28 3.7 5.22 5.22 0 0 1-1.11 3.28 3.67 3.67 0 0 1-3.08 1.44 3.16 3.16 0 0 1-1.6-.39c-.46-.27-.71-.48-.76-.66a7.9 7.9 0 0 1 .66-.82 2.4 2.4 0 0 0 .59-1.6 2.82 2.82 0 0 0-.62-1.9 2.11 2.11 0 0 0-1.67-.72 5.64 5.64 0 0 0-2.82 1.07 19.46 19.46 0 0 0-3.34 2.72v16a16.4 16.4 0 0 0 .13 2.49 2.23 2.23 0 0 0 .85 1.38 3.88 3.88 0 0 0 2.42.59h.4a1.28 1.28 0 0 1 .78.19 1.39 1.39 0 0 1 .33 1 1.62 1.62 0 0 1-.26.91.88.88 0 0 1-.79.4q-3.8-.19-6.87-.2t-6.81.2a.9.9 0 0 1-.72-.44zm34.63-1.7a9.68 9.68 0 0 1-2.62-7.07V57.93a21 21 0 0 0-.1-2.48 2.09 2.09 0 0 0-.81-1.38 3.92 3.92 0 0 0-2.43-.59 2.35 2.35 0 0 1-1.18-.23q-.39-.22-.39-1.08a1.29 1.29 0 0 1 .26-.75 1.13 1.13 0 0 1 .79-.43 33.5 33.5 0 0 0 7.07-1.7 6.59 6.59 0 0 1 1.51-.39h.15c.7 0 1 .41 1 1.24V70a5.7 5.7 0 0 0 2 4.6 6.6 6.6 0 0 0 4.39 1.6 9 9 0 0 0 5.24-1.5 8.43 8.43 0 0 0 2.88-3V57.93a23.49 23.49 0 0 0-.1-2.48 2.1 2.1 0 0 0-.82-1.38 3.88 3.88 0 0 0-2.42-.59 2.3 2.3 0 0 1-1.18-.23q-.39-.22-.39-1.08a1.22 1.22 0 0 1 .26-.75 1.09 1.09 0 0 1 .78-.43 33.76 33.76 0 0 0 7.08-1.7 6.65 6.65 0 0 1 1.5-.39h.2c.7 0 1 .41 1 1.24V72.8c0 2.58 1.72 3.86 5.17 3.86.74 0 1.11.42 1.11 1.25q0 .91-1.11 1.11l-10.54.72c-.31 0-.48-.1-.53-.29a5.93 5.93 0 0 1-.06-1v-3.69h-.13c-1.27 1.18-2.3 2.09-3.08 2.72a10.89 10.89 0 0 1-3.05 1.64 12.7 12.7 0 0 1-4.42.69 9.43 9.43 0 0 1-7.03-2.69zm33.25 1.7a1.44 1.44 0 0 1-.3-.91c0-.57.18-.91.4-1a2.87 2.87 0 0 1 1.17-.16 3.9 3.9 0 0 0 2.43-.59 2.1 2.1 0 0 0 .82-1.38 24.28 24.28 0 0 0 .09-2.49v-15a24.28 24.28 0 0 0-.09-2.49 2.1 2.1 0 0 0-.82-1.37 3.83 3.83 0 0 0-2.43-.59 2.39 2.39 0 0 1-1.17-.23c-.27-.16-.4-.52-.4-1.08a1.29 1.29 0 0 1 .26-.76 1.09 1.09 0 0 1 .79-.42 34.13 34.13 0 0 0 7.07-1.7 7.44 7.44 0 0 1 1.51-.4h.19c.7 0 1 .42 1 1.25v22.77a17.86 17.86 0 0 0 .13 2.49 2.23 2.23 0 0 0 .85 1.38 3.9 3.9 0 0 0 2.43.59h.39a1.34 1.34 0 0 1 .79.19 1.45 1.45 0 0 1 .32 1 1.55 1.55 0 0 1-.26.91.87.87 0 0 1-.78.4q-3.81-.19-6.88-.2t-6.81.2a.87.87 0 0 1-.7-.41zm4.16-39a3.74 3.74 0 0 1-1.23-2.82 3.39 3.39 0 0 1 1.51-2.69 5.4 5.4 0 0 1 3.4-1.17 3.5 3.5 0 0 1 2.69 1.14 4.21 4.21 0 0 1 1 2.92 3.47 3.47 0 0 1-1.24 2.68 4.47 4.47 0 0 1-3.04 1.12 4.35 4.35 0 0 1-3.07-1.17zM384.8 78a5.68 5.68 0 0 1-3.27-5.17 4.25 4.25 0 0 1 1.14-3.08 4 4 0 0 1 3-1.18 3.15 3.15 0 0 1 1.87.59c.55.39.82.7.82.92a5.93 5.93 0 0 1-.75.85 3.06 3.06 0 0 0-.76 2.23 3.53 3.53 0 0 0 1.8 3.11 9.8 9.8 0 0 0 5.21 1.14 7.64 7.64 0 0 0 4.79-1.41 4.48 4.48 0 0 0 1.74-3.77 3.78 3.78 0 0 0-1-2.68A6.9 6.9 0 0 0 397 68c-1-.39-2.35-.85-4.09-1.37a37.58 37.58 0 0 1-5.24-1.84 9 9 0 0 1-3.52-2.79 7.5 7.5 0 0 1-1.44-4.78 6.93 6.93 0 0 1 1.7-4.71 10.42 10.42 0 0 1 4.42-3 16.83 16.83 0 0 1 5.73-1 13.24 13.24 0 0 1 6.71 1.64 5.06 5.06 0 0 1 2.85 4.58 4.43 4.43 0 0 1-1.08 3 3.59 3.59 0 0 1-2.85 1.25 3.1 3.1 0 0 1-1.86-.59c-.55-.4-.82-.7-.82-.92A2.3 2.3 0 0 1 398 57a5.84 5.84 0 0 0 1-1.08 2.6 2.6 0 0 0 .43-1.48 3.39 3.39 0 0 0-1.77-2.75 7.42 7.42 0 0 0-3.87-1 8.07 8.07 0 0 0-4.35 1.15 3.56 3.56 0 0 0-1.87 3.17 4.82 4.82 0 0 0 .79 2.92 5.3 5.3 0 0 0 2.36 1.73q1.56.66 5 1.77a43.6 43.6 0 0 1 5.44 2.06 8.13 8.13 0 0 1 3.11 2.56 7.12 7.12 0 0 1 1.14 4.22 8.17 8.17 0 0 1-1.57 4.88 10.18 10.18 0 0 1-4.32 3.4 15.07 15.07 0 0 1-6.15 1.22A17.39 17.39 0 0 1 384.8 78zm31.58-.29a13.59 13.59 0 0 1-5.21-5.7 17.85 17.85 0 0 1-1.77-8 16.2 16.2 0 0 1 1.81-7.43 14.87 14.87 0 0 1 5.14-5.79 13.43 13.43 0 0 1 7.65-2.22q5.82 0 9 3a12.18 12.18 0 0 1 3.6 8 3.29 3.29 0 0 1-1.18 3 6.15 6.15 0 0 1-3.4.78h-15.94q0 6.09 2.53 9.66c1.68 2.38 4.28 3.57 7.82 3.57a8.91 8.91 0 0 0 4.78-1.21 12.14 12.14 0 0 0 3.73-4.09 1 1 0 0 1 .66-.33 1.24 1.24 0 0 1 .78.26 1.29 1.29 0 0 1 .66 1.18 1.15 1.15 0 0 1-.13.59 14.74 14.74 0 0 1-5.14 5.02 13.82 13.82 0 0 1-7 1.81 15.71 15.71 0 0 1-8.39-2.1zm10.38-16.89q3.33 0 3.53-2.76a8 8 0 0 0-1.63-5.1 5.56 5.56 0 0 0-4.65-2.1 6.8 6.8 0 0 0-5.5 2.65 12.47 12.47 0 0 0-2.43 7.31z" fill="#060012"/><path d="M67.28 83.11a2.88 2.88 0 0 0-1.61.9 40.57 40.57 0 0 1-10.45 7.45 24.72 24.72 0 0 1-10.52 2.31q-6.89 0-10.46-4a13.11 13.11 0 0 1-1.53-2.1 12.77 12.77 0 0 1-.71-1.43 15.1 15.1 0 0 1-.55-1.56 18.85 18.85 0 0 1-.69-5.05v-.49q0-.8.06-1.62c.06-.79.15-1.6.28-2.43a42.88 42.88 0 0 1 3-10.07 7.07 7.07 0 0 0-1.24-1.27 46.86 46.86 0 0 0-6.12-3.86L25.12 59a66.45 66.45 0 0 0-2.95 5.84q-3.89 8.69-3.87 15.56 0 .84.06 1.65c0 .24 0 .49.07.73s.07.61.11.91a19.48 19.48 0 0 0 1 4c.2.54.43 1.07.68 1.59a15.36 15.36 0 0 0 4.43 5.38 18.54 18.54 0 0 0 4.53 2.55H0l3.51-11.76q4.23 2.33 12.59 2.35a23.78 23.78 0 0 1-.91-4.29q-3.64-.51-4.93-2.43-1.77-2.62.38-7.44A10 10 0 0 1 13 70.25a11.45 11.45 0 0 1 2.68-1.85 6.69 6.69 0 0 0 1.32-.72 2 2 0 0 0-.34-2c-.5-.72-1.52-1.11-3.07-1.18a12.92 12.92 0 0 0-4 .63l7.3-24.43a10.83 10.83 0 0 0-.08 5.3 11.33 11.33 0 0 0 3.1 5.4q.33.32.69.6c.24.2.5.4.76.6.78.59 1.67 1.21 2.66 1.85.44.29.91.58 1.39.88s.92.56 1.42.84 1 .57 1.49.86a50.16 50.16 0 0 1 6.57 4.16q.36.29.69.6a9.93 9.93 0 0 1 1.19 1.34 9.82 9.82 0 0 1 1 1.75q.16.38.3.78.93 2.64-.72 6.34a16.67 16.67 0 0 1-3.16 4.63 22.52 22.52 0 0 0-.19 2.54 16.26 16.26 0 0 0 .42 4.1 37.7 37.7 0 0 0 6.65-4.35 25.49 25.49 0 0 0 7.37-9.29q2.66-6 1.81-10a11.59 11.59 0 0 0-3.55-6.43q-.63-.56-1.38-1.14c-.41-.32-.85-.65-1.32-1l-1.37-.93Q40.88 49 38.7 47.76c-1.22-.68-2.38-1.37-3.47-2.06-.49-.3-1-.61-1.42-.91l-1.07-.72-.3-.23a10.53 10.53 0 0 1-3.83-4.55q-.88-2.41.72-6A16.72 16.72 0 0 1 35.79 26a19.47 19.47 0 0 1 10.8-2.92h1L51.3 34.4l-.66.31c-1.27.61-2.51 1.26-3.73 2l-1.23.73c-.55.34-1.1.69-1.65 1.06s-1 .66-1.45 1a55.68 55.68 0 0 0-4.87 3.89c.83.51 1.7 1 2.6 1.53q2.45 1.41 4.38 2.68c1.23-1.42 2.47-2.74 3.74-4 .61-.57 1.22-1.12 1.83-1.64.92-.79 1.85-1.52 2.79-2.18zM40 0l-8 22.44A36.69 36.69 0 0 1 46.24 19zm28.6 87.19a75.61 75.61 0 0 1-10.41 7.25 34.67 34.67 0 0 1-6.35 2.75h20z" fill="url(#a)"/></g></svg>