<svg xmlns="http://www.w3.org/2000/svg" viewBox="0 0 58.11 95"><path d="M0 0a151.8 151.8 0 0 1 14.47 9.28c4.62 3.3 9.07 6.77 13.44 10.31 8.71 7.12 17 14.7 24.89 22.61l5.31 5.29-5.31 5.31c-7.91 7.92-16.17 15.5-24.87 22.63-4.38 3.54-8.82 7-13.45 10.3A148.72 148.72 0 0 1 0 95a148.72 148.72 0 0 1 9.27-14.48c3.29-4.63 6.76-9.07 10.3-13.45 7.13-8.7 14.71-17 22.63-24.87v10.6c-7.91-7.92-15.49-16.18-22.61-24.89-3.54-4.37-7-8.82-10.31-13.44A151.8 151.8 0 0 1 0 0z" fill="#c25200" data-name="Layer 2"/></svg>