<svg xmlns="http://www.w3.org/2000/svg" viewBox="0 0 82.85 84.97"><defs><style>.cls-1{fill:#060012;}</style></defs><title>Electric</title><g id="Layer_2" data-name="Layer 2"><g id="Layer_2-2" data-name="Layer 2"><path class="cls-1" d="M81.14,43.71H74.67V39.12h6.47a1.71,1.71,0,1,0,0-3.41H74.67V33.37h0V32.18A.68.68,0,0,0,74,31.5h-.24a.68.68,0,0,0-.68.68v1.19H67a3.06,3.06,0,0,0-3.05,3.06v3.32H60.08A4.26,4.26,0,0,0,56.92,41a4.19,4.19,0,0,0-1.26,3.12V72.31a2.78,2.78,0,0,1-.51,1.91,2.47,2.47,0,0,1-1.87.55H47.92A2.85,2.85,0,0,1,46,74.26a2.56,2.56,0,0,1-.54-1.88V49.8h0V48a4.31,4.31,0,0,0-1.24-3.17,4.26,4.26,0,0,0-3.13-1.25h-.16V6.85A6.87,6.87,0,0,0,34.06,0H10.48A6.87,6.87,0,0,0,3.63,6.85V78.67H2.13C.39,78.67,0,80.09,0,81.82S.39,85,2.13,85H42.42c1.73,0,2.12-1.42,2.12-3.15s-.39-3.15-2.12-3.15H40.91V46.62A1.78,1.78,0,0,1,42,47.1,2.78,2.78,0,0,1,42.48,49V54.3h0V73.36a4.19,4.19,0,0,0,1.26,3.12,4.26,4.26,0,0,0,3.16,1.25h7.35a4.22,4.22,0,0,0,3.12-1.25,4.28,4.28,0,0,0,1.25-3.17V45.1a2.56,2.56,0,0,1,.54-1.88,2.85,2.85,0,0,1,1.92-.51h2.79V43h0V46.4A3.06,3.06,0,0,0,67,49.46h6.1v1.19a.68.68,0,0,0,.68.68H74a.68.68,0,0,0,.68-.68V49.46h0V47.12h6.47a1.71,1.71,0,1,0,0-3.41ZM33.66,36.26,20.29,56.08a1.75,1.75,0,0,1-1.48.75A1.56,1.56,0,0,1,17.15,55l3.28-11.85H12a1.59,1.59,0,0,1-1.7-1.7l2.28-15.26a1.66,1.66,0,0,1,1.7-1.3H24a1.56,1.56,0,0,1,1.65,1.89L24,34h8.22A1.51,1.51,0,0,1,33.66,36.26Z"/></g></g></svg>