<svg xmlns="http://www.w3.org/2000/svg" viewBox="0 0 58.11 95"><defs><style>.cls-1{fill:#c25200;}</style></defs><title>Asset 6</title><g id="Layer_2" data-name="Layer 2"><g id="Layer_2-2" data-name="Layer 2"><path class="cls-1" d="M0,0A151.8,151.8,0,0,1,14.47,9.28c4.62,3.3,9.07,6.77,13.44,10.31,8.71,7.12,17,14.7,24.89,22.61l5.31,5.29L52.8,52.8c-7.91,7.92-16.17,15.5-24.87,22.63-4.38,3.54-8.82,7-13.45,10.3A148.72,148.72,0,0,1,0,95,148.72,148.72,0,0,1,9.27,80.52c3.29-4.63,6.76-9.07,10.3-13.45,7.13-8.7,14.71-17,22.63-24.87V52.8c-7.91-7.92-15.49-16.18-22.61-24.89-3.54-4.37-7-8.82-10.31-13.44A151.8,151.8,0,0,1,0,0Z"/></g></g></svg>