<svg xmlns="http://www.w3.org/2000/svg" viewBox="0 0 95.83 84.97"><defs><style>.cls-1{fill:#060012;}</style></defs><title>Plant</title><g id="Layer_2" data-name="Layer 2"><g id="Layer_2-2" data-name="Layer 2"><path class="cls-1" d="M52.9,28.62a21.29,21.29,0,0,0,1.57-7A22.41,22.41,0,0,0,49.89,6.76,19,19,0,0,0,44,1.64,12.74,12.74,0,0,0,38,0a6.16,6.16,0,0,0-1.85.3l-.61.2s.05.22.13.62.1,1,.16,1.65a37.39,37.39,0,0,1-.24,4.72,30.12,30.12,0,0,0,1,11.54,27.48,27.48,0,0,0,2.54,5.82,29.94,29.94,0,0,0,3.6,5c1.17,1.3,3.81,4.3,4.77,5.06A44.59,44.59,0,0,0,48,29.7c.1-1.24,0-2.48,0-3.7s-.24-2.41-.34-3.57-.49-2.24-.72-3.29-.71-2-1-2.83-.85-1.58-1.22-2.25a8.61,8.61,0,0,0-1.14-1.61L42.5,11.1l1.17,1.27A8.84,8.84,0,0,1,45,13.91l1.41,2.19,1.26,2.83c.31,1,.68,2.15,1,3.31s.51,2.4.63,3.65.29,2.53.28,3.81c.06,1.46,0,2.9,0,4.31.11-.12.25-.22.36-.36A18.79,18.79,0,0,0,52.9,28.62ZM41.5,39.24c.19.31.35.61.53.92A27,27,0,0,0,21.54,58l.63.08a30.68,30.68,0,0,1,4.08.56A3.1,3.1,0,0,1,26.89,57a7.71,7.71,0,0,1,6.42-3.08,43,43,0,0,1,12.58,1.43,10.26,10.26,0,0,0,7-.39c6.78-2.71,12.74-2.46,17.55.67.6.39,1.21.8,1.84,1.23A27,27,0,0,0,51.48,40c.26-.46.5-.91.79-1.38A5,5,0,0,0,53,36.81a2.8,2.8,0,0,1,0-.5c-1,1.22-1.84,2.44-2.6,3.6-.47,0-1-.07-1.44-.11.25-1.81.46-3.75.55-5.79a4.08,4.08,0,0,1-.46.47A6.86,6.86,0,0,0,48.14,37c-.17,1-.35,1.86-.55,2.75-.16,0-.32,0-.48,0A27.15,27.15,0,0,0,43,40c-.68-1-1.41-2-2.24-3.08a4.15,4.15,0,0,1,0,.49A5.11,5.11,0,0,0,41.5,39.24Zm15.65-7.43c.69-.66,1.48-1.19,2.18-1.77s1.51-1,2.2-1.4,1.48-.67,2.13-1l1.9-.55a6.53,6.53,0,0,1,1.49-.24l1.31-.14L67.07,27a7.6,7.6,0,0,0-1.45.34L63.8,28l-2,1.1c-.65.49-1.35,1-2,1.52s-1.36,1.17-2,1.86-1.28,1.35-1.85,2.11a33.52,33.52,0,0,0-2.32,3.22c.93,0,3.93-.36,5.24-.51a23,23,0,0,0,4.55-1.06,20.8,20.8,0,0,0,4.34-2,22.61,22.61,0,0,0,6.34-6.05,27.91,27.91,0,0,1,2.22-2.81c.34-.32.67-.69.91-.87l.39-.28-.25-.43a4.39,4.39,0,0,0-.91-1.08,9.39,9.39,0,0,0-4.23-2.06,14.29,14.29,0,0,0-5.9,0,16.26,16.26,0,0,0-5.65,2.25,16.54,16.54,0,0,0-4.37,3.94,16.22,16.22,0,0,0-2.58,4.76,14.3,14.3,0,0,0-.77,4.39c0,.13,0,.26,0,.39.67-.84,1.37-1.67,2.13-2.48S56.46,32.47,57.15,31.81ZM17.47,25.9a28.9,28.9,0,0,1,2.21,2.8A22.77,22.77,0,0,0,26,34.76a20.8,20.8,0,0,0,4.34,2.05,22.89,22.89,0,0,0,4.56,1.06c1.31.15,4.31.55,5.23.5a33.39,33.39,0,0,0-2.32-3.21c-.56-.76-1.23-1.42-1.84-2.11s-1.35-1.25-2-1.86-1.4-1-2-1.52l-2-1.1-1.82-.68a6.91,6.91,0,0,0-1.45-.34l-1.29-.23,1.3.14a7.13,7.13,0,0,1,1.5.23l1.89.56,2.13,1c.7.44,1.46.89,2.21,1.4s1.48,1.11,2.17,1.77a28.15,28.15,0,0,1,2.06,2c.76.8,1.46,1.63,2.13,2.47a2.42,2.42,0,0,0,0-.38,14,14,0,0,0-.75-4.4,16.06,16.06,0,0,0-2.6-4.76,16.89,16.89,0,0,0-10-6.19,14.29,14.29,0,0,0-5.9,0,9.7,9.7,0,0,0-4.24,2.06,4.74,4.74,0,0,0-.9,1.08l-.25.43.38.29A10.89,10.89,0,0,1,17.47,25.9ZM83.4,70.69c-4.15-5.62-9.57-9.81-15.29-13.54-4.64-3-9.93-2.37-14.85-.4a13.17,13.17,0,0,1-8.9.47,40.33,40.33,0,0,0-11.7-1.31,4.84,4.84,0,0,0-4.1,1.92c-.56.74,4,3.82,8,3.82-.73,1.47-13.5-1.63-15.21-1.51l-9.66-1.23c-3.43-.28-3.43-1.58-6.81.33a.73.73,0,0,1-.42.06A4.28,4.28,0,0,0,.47,61a2.31,2.31,0,0,0-.24,2.44c.34.87,1.21.65,1.91.93,4.32,1.71,5.72,2.54,11.58,4,4.17,1,8.23,2.29,12.39,3.23a18.18,18.18,0,0,1,5,1.55A19.08,19.08,0,0,0,41.7,75.42c4.27-.19,8.56,0,12.85,0,7.51,0,13.22,3,17.09,9.6l24.19,0C90.55,78.75,88.22,77.25,83.4,70.69Z"/></g></g></svg>