<svg xmlns="http://www.w3.org/2000/svg" viewBox="0 0 58.11 95"><path d="M58.11 95a151.8 151.8 0 0 1-14.47-9.28C39 82.42 34.57 79 30.2 75.41c-8.71-7.12-17-14.7-24.89-22.61L0 47.51l5.31-5.31a336 336 0 0 1 24.88-22.63c4.37-3.54 8.82-7 13.44-10.3A148.72 148.72 0 0 1 58.11 0a148.72 148.72 0 0 1-9.27 14.48c-3.29 4.63-6.76 9.07-10.3 13.45-7.13 8.7-14.71 17-22.63 24.87V42.2c7.91 7.93 15.49 16.18 22.61 24.89 3.55 4.37 7 8.82 10.31 13.44A149.87 149.87 0 0 1 58.11 95z" fill="#c25200" data-name="Layer 2"/></svg>