<svg xmlns="http://www.w3.org/2000/svg" viewBox="0 0 87.01 84.97"><defs><style>.cls-1{fill:#060012;}</style></defs><title>Recycle</title><g id="Layer_2" data-name="Layer 2"><g id="Layer_2-2" data-name="Layer 2"><path class="cls-1" d="M13.82,61.78a14,14,0,0,0-1.67,5.75A10,10,0,0,0,12.24,69L.65,49.07A5.15,5.15,0,0,1,0,46.66a5.55,5.55,0,0,1,.65-2.5l5.56-9.74L0,30.89l20.22-.37,9.83,17.72-6.3-3.62L13.82,61.78ZM22.73,5.57A9.06,9.06,0,0,1,30.89.84c3.8,0,6.77,1.76,8.9,5.37L43,11.5,32,30.43,14.29,20.13,22.73,5.57ZM24,77.83a9.69,9.69,0,0,1-9.64-9.65A13.06,13.06,0,0,1,16,62.62l3-5.29h22v20.5ZM41.65,5a11.35,11.35,0,0,0-5.47-5H59a5,5,0,0,1,4.54,2.42l5.66,9.64,6.12-3.62L65.49,26.07l-20.13-.28,6.22-3.53L41.65,5Zm35.16,52.5a11.26,11.26,0,0,0,7-2.22l-11.51,20a5.12,5.12,0,0,1-4.54,2.51H57V85L46.57,67.63,57,50.28v7.23Zm8.9-16.69A9.48,9.48,0,0,1,87,45.55a10.3,10.3,0,0,1-5.1,8.53,11.6,11.6,0,0,1-5.29,1.21H70.5L59.56,36.36,77.27,26.25l8.44,14.57Z"/></g></g></svg>